%TF.GenerationSoftware,KiCad,Pcbnew,5.99.0-unknown-4d227d2d2b~128~ubuntu21.04.1*%
%TF.CreationDate,2021-05-21T14:31:05+02:00*%
%TF.ProjectId,dzzy,647a7a79-2e6b-4696-9361-645f70636258,rev?*%
%TF.SameCoordinates,Original*%
%TF.FileFunction,Paste,Bot*%
%TF.FilePolarity,Positive*%
%FSLAX46Y46*%
G04 Gerber Fmt 4.6, Leading zero omitted, Abs format (unit mm)*
G04 Created by KiCad (PCBNEW 5.99.0-unknown-4d227d2d2b~128~ubuntu21.04.1) date 2021-05-21 14:31:05*
%MOMM*%
%LPD*%
G01*
G04 APERTURE LIST*
G04 Aperture macros list*
%AMRoundRect*
0 Rectangle with rounded corners*
0 $1 Rounding radius*
0 $2 $3 $4 $5 $6 $7 $8 $9 X,Y pos of 4 corners*
0 Add a 4 corners polygon primitive as box body*
4,1,4,$2,$3,$4,$5,$6,$7,$8,$9,$2,$3,0*
0 Add four circle primitives for the rounded corners*
1,1,$1+$1,$2,$3*
1,1,$1+$1,$4,$5*
1,1,$1+$1,$6,$7*
1,1,$1+$1,$8,$9*
0 Add four rect primitives between the rounded corners*
20,1,$1+$1,$2,$3,$4,$5,0*
20,1,$1+$1,$4,$5,$6,$7,0*
20,1,$1+$1,$6,$7,$8,$9,0*
20,1,$1+$1,$8,$9,$2,$3,0*%
%AMRotRect*
0 Rectangle, with rotation*
0 The origin of the aperture is its center*
0 $1 length*
0 $2 width*
0 $3 Rotation angle, in degrees counterclockwise*
0 Add horizontal line*
21,1,$1,$2,0,0,$3*%
G04 Aperture macros list end*
%ADD10R,0.570000X2.450000*%
%ADD11R,0.300000X2.450000*%
%ADD12R,0.797560X0.797560*%
%ADD13R,1.200000X0.900000*%
%ADD14RotRect,0.900000X1.200000X255.000000*%
%ADD15RoundRect,0.218750X-0.256250X0.218750X-0.256250X-0.218750X0.256250X-0.218750X0.256250X0.218750X0*%
%ADD16R,1.800000X1.350000*%
G04 APERTURE END LIST*
D10*
%TO.C,P1*%
X94375000Y-27925000D03*
X95150000Y-27925000D03*
D11*
X96350000Y-27925000D03*
X97350000Y-27925000D03*
X97850000Y-27925000D03*
D10*
X100825000Y-27925000D03*
X100050000Y-27925000D03*
D11*
X99350000Y-27925000D03*
X98350000Y-27925000D03*
X96850000Y-27925000D03*
X98850000Y-27925000D03*
X95850000Y-27925000D03*
%TD*%
D12*
%TO.C,D7*%
X95262700Y-109220000D03*
X96761300Y-109220000D03*
%TD*%
D13*
%TO.C,D10*%
X88646000Y-87740000D03*
X88646000Y-91040000D03*
%TD*%
%TO.C,D13*%
X106800000Y-62208000D03*
X106800000Y-65508000D03*
%TD*%
%TO.C,D5*%
X70800000Y-104776000D03*
X70800000Y-108076000D03*
%TD*%
%TO.C,D3*%
X70712000Y-70850000D03*
X70712000Y-74150000D03*
%TD*%
%TO.C,D2*%
X70712000Y-53750000D03*
X70712000Y-57050000D03*
%TD*%
%TO.C,D21*%
X142700000Y-53750000D03*
X142700000Y-57050000D03*
%TD*%
D14*
%TO.C,D29*%
X156827051Y-113906222D03*
X155972949Y-117093778D03*
%TD*%
D13*
%TO.C,D11*%
X88700000Y-104850000D03*
X88700000Y-108150000D03*
%TD*%
%TO.C,D6*%
X88646000Y-36840000D03*
X88646000Y-40140000D03*
%TD*%
%TO.C,D20*%
X142700000Y-36750000D03*
X142700000Y-40050000D03*
%TD*%
D15*
%TO.C,R1*%
X113030000Y-105511500D03*
X113030000Y-107086500D03*
%TD*%
D13*
%TO.C,D23*%
X142700000Y-87750000D03*
X142700000Y-91050000D03*
%TD*%
D14*
%TO.C,D24*%
X139327051Y-109306222D03*
X138472949Y-112493778D03*
%TD*%
D13*
%TO.C,D9*%
X88646000Y-70740000D03*
X88646000Y-74040000D03*
%TD*%
%TO.C,D8*%
X88646000Y-53740000D03*
X88646000Y-57040000D03*
%TD*%
%TO.C,D1*%
X70712000Y-36850000D03*
X70712000Y-40150000D03*
%TD*%
%TO.C,D4*%
X70712000Y-87750000D03*
X70712000Y-91050000D03*
%TD*%
%TO.C,D25*%
X160700000Y-36850000D03*
X160700000Y-40150000D03*
%TD*%
D16*
%TO.C,S30*%
X109982000Y-103945000D03*
X109982000Y-108145000D03*
%TD*%
D13*
%TO.C,D16*%
X124800000Y-36850000D03*
X124800000Y-40150000D03*
%TD*%
%TO.C,D14*%
X106800000Y-79308000D03*
X106800000Y-82608000D03*
%TD*%
%TO.C,D18*%
X124800000Y-70750000D03*
X124800000Y-74050000D03*
%TD*%
%TO.C,D27*%
X160700000Y-70850000D03*
X160700000Y-74150000D03*
%TD*%
%TO.C,D15*%
X106800000Y-87758000D03*
X106800000Y-91058000D03*
%TD*%
%TO.C,D12*%
X106800000Y-45208000D03*
X106800000Y-48508000D03*
%TD*%
D16*
%TO.C,S29*%
X116078000Y-103945000D03*
X116078000Y-108145000D03*
%TD*%
D13*
%TO.C,D22*%
X142700000Y-70750000D03*
X142700000Y-74050000D03*
%TD*%
%TO.C,D17*%
X124800000Y-53850000D03*
X124800000Y-57150000D03*
%TD*%
%TO.C,D19*%
X124800000Y-87750000D03*
X124800000Y-91050000D03*
%TD*%
%TO.C,D28*%
X160700000Y-87750000D03*
X160700000Y-91050000D03*
%TD*%
%TO.C,D26*%
X160618000Y-53722000D03*
X160618000Y-57022000D03*
%TD*%
M02*
