%TF.GenerationSoftware,KiCad,Pcbnew,5.99.0-unknown-3de60231db~128~ubuntu21.04.1*%
%TF.CreationDate,2021-05-22T07:34:54+02:00*%
%TF.ProjectId,dzzy,647a7a79-2e6b-4696-9361-645f70636258,rev?*%
%TF.SameCoordinates,Original*%
%TF.FileFunction,Other,User*%
%FSLAX46Y46*%
G04 Gerber Fmt 4.6, Leading zero omitted, Abs format (unit mm)*
G04 Created by KiCad (PCBNEW 5.99.0-unknown-3de60231db~128~ubuntu21.04.1) date 2021-05-22 07:34:54*
%MOMM*%
%LPD*%
G01*
G04 APERTURE LIST*
%ADD10C,0.228600*%
G04 APERTURE END LIST*
D10*
X111935380Y-102265238D02*
X111209666Y-102265238D01*
X111064523Y-102313619D01*
X110967761Y-102410381D01*
X110919380Y-102555523D01*
X110919380Y-102652285D01*
X111935380Y-101926571D02*
X111935380Y-101346000D01*
X110919380Y-101636285D02*
X111935380Y-101636285D01*
X110919380Y-101007333D02*
X111935380Y-101007333D01*
X111935380Y-100765428D01*
X111887000Y-100620285D01*
X111790238Y-100523523D01*
X111693476Y-100475143D01*
X111499952Y-100426762D01*
X111354809Y-100426762D01*
X111161285Y-100475143D01*
X111064523Y-100523523D01*
X110967761Y-100620285D01*
X110919380Y-100765428D01*
X110919380Y-101007333D01*
X111935380Y-99797809D02*
X111935380Y-99604285D01*
X111887000Y-99507523D01*
X111790238Y-99410762D01*
X111596714Y-99362381D01*
X111258047Y-99362381D01*
X111064523Y-99410762D01*
X110967761Y-99507523D01*
X110919380Y-99604285D01*
X110919380Y-99797809D01*
X110967761Y-99894571D01*
X111064523Y-99991333D01*
X111258047Y-100039714D01*
X111596714Y-100039714D01*
X111790238Y-99991333D01*
X111887000Y-99894571D01*
X111935380Y-99797809D01*
X113459380Y-101974953D02*
X113943190Y-102313619D01*
X113459380Y-102555524D02*
X114475380Y-102555524D01*
X114475380Y-102168476D01*
X114427000Y-102071714D01*
X114378619Y-102023334D01*
X114281857Y-101974953D01*
X114136714Y-101974953D01*
X114039952Y-102023334D01*
X113991571Y-102071714D01*
X113943190Y-102168476D01*
X113943190Y-102555524D01*
X113991571Y-101539524D02*
X113991571Y-101200857D01*
X113459380Y-101055714D02*
X113459380Y-101539524D01*
X114475380Y-101539524D01*
X114475380Y-101055714D01*
X113507761Y-100668667D02*
X113459380Y-100523524D01*
X113459380Y-100281619D01*
X113507761Y-100184857D01*
X113556142Y-100136476D01*
X113652904Y-100088095D01*
X113749666Y-100088095D01*
X113846428Y-100136476D01*
X113894809Y-100184857D01*
X113943190Y-100281619D01*
X113991571Y-100475143D01*
X114039952Y-100571905D01*
X114088333Y-100620286D01*
X114185095Y-100668667D01*
X114281857Y-100668667D01*
X114378619Y-100620286D01*
X114427000Y-100571905D01*
X114475380Y-100475143D01*
X114475380Y-100233238D01*
X114427000Y-100088095D01*
X113991571Y-99652667D02*
X113991571Y-99314000D01*
X113459380Y-99168857D02*
X113459380Y-99652667D01*
X114475380Y-99652667D01*
X114475380Y-99168857D01*
X114475380Y-98878572D02*
X114475380Y-98298000D01*
X113459380Y-98588286D02*
X114475380Y-98588286D01*
X107006571Y-107907666D02*
X106958190Y-107762523D01*
X106909809Y-107714142D01*
X106813047Y-107665761D01*
X106667904Y-107665761D01*
X106571142Y-107714142D01*
X106522761Y-107762523D01*
X106474380Y-107859285D01*
X106474380Y-108246333D01*
X107490380Y-108246333D01*
X107490380Y-107907666D01*
X107442000Y-107810904D01*
X107393619Y-107762523D01*
X107296857Y-107714142D01*
X107200095Y-107714142D01*
X107103333Y-107762523D01*
X107054952Y-107810904D01*
X107006571Y-107907666D01*
X107006571Y-108246333D01*
X107490380Y-107036809D02*
X107490380Y-106843285D01*
X107442000Y-106746523D01*
X107345238Y-106649761D01*
X107151714Y-106601380D01*
X106813047Y-106601380D01*
X106619523Y-106649761D01*
X106522761Y-106746523D01*
X106474380Y-106843285D01*
X106474380Y-107036809D01*
X106522761Y-107133571D01*
X106619523Y-107230333D01*
X106813047Y-107278714D01*
X107151714Y-107278714D01*
X107345238Y-107230333D01*
X107442000Y-107133571D01*
X107490380Y-107036809D01*
X107490380Y-105972428D02*
X107490380Y-105778904D01*
X107442000Y-105682142D01*
X107345238Y-105585380D01*
X107151714Y-105537000D01*
X106813047Y-105537000D01*
X106619523Y-105585380D01*
X106522761Y-105682142D01*
X106474380Y-105778904D01*
X106474380Y-105972428D01*
X106522761Y-106069190D01*
X106619523Y-106165952D01*
X106813047Y-106214333D01*
X107151714Y-106214333D01*
X107345238Y-106165952D01*
X107442000Y-106069190D01*
X107490380Y-105972428D01*
X107490380Y-105246714D02*
X107490380Y-104666142D01*
X106474380Y-104956428D02*
X107490380Y-104956428D01*
X107490380Y-104133952D02*
X107490380Y-104037190D01*
X107442000Y-103940428D01*
X107393619Y-103892047D01*
X107296857Y-103843666D01*
X107103333Y-103795285D01*
X106861428Y-103795285D01*
X106667904Y-103843666D01*
X106571142Y-103892047D01*
X106522761Y-103940428D01*
X106474380Y-104037190D01*
X106474380Y-104133952D01*
X106522761Y-104230714D01*
X106571142Y-104279095D01*
X106667904Y-104327476D01*
X106861428Y-104375857D01*
X107103333Y-104375857D01*
X107296857Y-104327476D01*
X107393619Y-104279095D01*
X107442000Y-104230714D01*
X107490380Y-104133952D01*
X104315380Y-102265238D02*
X103589666Y-102265238D01*
X103444523Y-102313619D01*
X103347761Y-102410381D01*
X103299380Y-102555524D01*
X103299380Y-102652286D01*
X104315380Y-101926572D02*
X104315380Y-101346000D01*
X103299380Y-101636286D02*
X104315380Y-101636286D01*
X103299380Y-101007333D02*
X104315380Y-101007333D01*
X103589666Y-100668667D01*
X104315380Y-100330000D01*
X103299380Y-100330000D01*
X103347761Y-99894572D02*
X103299380Y-99749429D01*
X103299380Y-99507524D01*
X103347761Y-99410762D01*
X103396142Y-99362381D01*
X103492904Y-99314000D01*
X103589666Y-99314000D01*
X103686428Y-99362381D01*
X103734809Y-99410762D01*
X103783190Y-99507524D01*
X103831571Y-99701048D01*
X103879952Y-99797810D01*
X103928333Y-99846191D01*
X104025095Y-99894572D01*
X104121857Y-99894572D01*
X104218619Y-99846191D01*
X104267000Y-99797810D01*
X104315380Y-99701048D01*
X104315380Y-99459143D01*
X104267000Y-99314000D01*
X109395380Y-102265238D02*
X108669666Y-102265238D01*
X108524523Y-102313619D01*
X108427761Y-102410381D01*
X108379380Y-102555524D01*
X108379380Y-102652286D01*
X109395380Y-101926571D02*
X109395380Y-101346000D01*
X108379380Y-101636286D02*
X109395380Y-101636286D01*
X108379380Y-101007333D02*
X109395380Y-101007333D01*
X109395380Y-100765429D01*
X109347000Y-100620286D01*
X109250238Y-100523524D01*
X109153476Y-100475143D01*
X108959952Y-100426762D01*
X108814809Y-100426762D01*
X108621285Y-100475143D01*
X108524523Y-100523524D01*
X108427761Y-100620286D01*
X108379380Y-100765429D01*
X108379380Y-101007333D01*
X108379380Y-99991333D02*
X109395380Y-99991333D01*
X106855380Y-102265238D02*
X106129666Y-102265238D01*
X105984523Y-102313619D01*
X105887761Y-102410381D01*
X105839380Y-102555524D01*
X105839380Y-102652286D01*
X106855380Y-101926572D02*
X106855380Y-101346000D01*
X105839380Y-101636286D02*
X106855380Y-101636286D01*
X105936142Y-100426762D02*
X105887761Y-100475143D01*
X105839380Y-100620286D01*
X105839380Y-100717048D01*
X105887761Y-100862191D01*
X105984523Y-100958953D01*
X106081285Y-101007334D01*
X106274809Y-101055714D01*
X106419952Y-101055714D01*
X106613476Y-101007334D01*
X106710238Y-100958953D01*
X106807000Y-100862191D01*
X106855380Y-100717048D01*
X106855380Y-100620286D01*
X106807000Y-100475143D01*
X106758619Y-100426762D01*
X105839380Y-99991334D02*
X106855380Y-99991334D01*
X105839380Y-99410762D02*
X106419952Y-99846191D01*
X106855380Y-99410762D02*
X106274809Y-99991334D01*
X118412380Y-107520619D02*
X118896190Y-107859285D01*
X118412380Y-108101190D02*
X119428380Y-108101190D01*
X119428380Y-107714142D01*
X119380000Y-107617380D01*
X119331619Y-107569000D01*
X119234857Y-107520619D01*
X119089714Y-107520619D01*
X118992952Y-107569000D01*
X118944571Y-107617380D01*
X118896190Y-107714142D01*
X118896190Y-108101190D01*
X118944571Y-107085190D02*
X118944571Y-106746523D01*
X118412380Y-106601380D02*
X118412380Y-107085190D01*
X119428380Y-107085190D01*
X119428380Y-106601380D01*
X118460761Y-106214333D02*
X118412380Y-106069190D01*
X118412380Y-105827285D01*
X118460761Y-105730523D01*
X118509142Y-105682142D01*
X118605904Y-105633761D01*
X118702666Y-105633761D01*
X118799428Y-105682142D01*
X118847809Y-105730523D01*
X118896190Y-105827285D01*
X118944571Y-106020809D01*
X118992952Y-106117571D01*
X119041333Y-106165952D01*
X119138095Y-106214333D01*
X119234857Y-106214333D01*
X119331619Y-106165952D01*
X119380000Y-106117571D01*
X119428380Y-106020809D01*
X119428380Y-105778904D01*
X119380000Y-105633761D01*
X118944571Y-105198333D02*
X118944571Y-104859666D01*
X118412380Y-104714523D02*
X118412380Y-105198333D01*
X119428380Y-105198333D01*
X119428380Y-104714523D01*
X119428380Y-104424238D02*
X119428380Y-103843666D01*
X118412380Y-104133952D02*
X119428380Y-104133952D01*
X117015380Y-102700666D02*
X115999380Y-102362000D01*
X117015380Y-102023333D01*
X116047761Y-101733047D02*
X115999380Y-101587904D01*
X115999380Y-101346000D01*
X116047761Y-101249238D01*
X116096142Y-101200857D01*
X116192904Y-101152476D01*
X116289666Y-101152476D01*
X116386428Y-101200857D01*
X116434809Y-101249238D01*
X116483190Y-101346000D01*
X116531571Y-101539523D01*
X116579952Y-101636285D01*
X116628333Y-101684666D01*
X116725095Y-101733047D01*
X116821857Y-101733047D01*
X116918619Y-101684666D01*
X116967000Y-101636285D01*
X117015380Y-101539523D01*
X117015380Y-101297619D01*
X116967000Y-101152476D01*
X116047761Y-100765428D02*
X115999380Y-100620285D01*
X115999380Y-100378381D01*
X116047761Y-100281619D01*
X116096142Y-100233238D01*
X116192904Y-100184857D01*
X116289666Y-100184857D01*
X116386428Y-100233238D01*
X116434809Y-100281619D01*
X116483190Y-100378381D01*
X116531571Y-100571904D01*
X116579952Y-100668666D01*
X116628333Y-100717047D01*
X116725095Y-100765428D01*
X116821857Y-100765428D01*
X116918619Y-100717047D01*
X116967000Y-100668666D01*
X117015380Y-100571904D01*
X117015380Y-100330000D01*
X116967000Y-100184857D01*
X101775380Y-102700666D02*
X100759380Y-102362000D01*
X101775380Y-102023333D01*
X100759380Y-101684666D02*
X101775380Y-101684666D01*
X101775380Y-101442761D01*
X101727000Y-101297619D01*
X101630238Y-101200857D01*
X101533476Y-101152476D01*
X101339952Y-101104095D01*
X101194809Y-101104095D01*
X101001285Y-101152476D01*
X100904523Y-101200857D01*
X100807761Y-101297619D01*
X100759380Y-101442761D01*
X100759380Y-101684666D01*
X100759380Y-100668666D02*
X101775380Y-100668666D01*
X101775380Y-100426761D01*
X101727000Y-100281619D01*
X101630238Y-100184857D01*
X101533476Y-100136476D01*
X101339952Y-100088095D01*
X101194809Y-100088095D01*
X101001285Y-100136476D01*
X100904523Y-100184857D01*
X100807761Y-100281619D01*
X100759380Y-100426761D01*
X100759380Y-100668666D01*
M02*
