M48
; DRILL file {KiCad 5.99.0-unknown-4d227d2d2b~128~ubuntu21.04.1} date Fri May 21 14:31:07 2021
; FORMAT={-:-/ absolute / inch / decimal}
; #@! TF.CreationDate,2021-05-21T14:31:07+02:00
; #@! TF.GenerationSoftware,Kicad,Pcbnew,5.99.0-unknown-4d227d2d2b~128~ubuntu21.04.1
; #@! TF.FileFunction,MixedPlating,1,2
FMAT,2
INCH
; #@! TA.AperFunction,Plated,PTH,ViaDrill
T1C0.0118
; #@! TA.AperFunction,Plated,PTH,ViaDrill
T2C0.0157
; #@! TA.AperFunction,Plated,PTH,ComponentDrill
T3C0.0236
; #@! TA.AperFunction,Plated,PTH,ComponentDrill
T4C0.0374
; #@! TA.AperFunction,Plated,PTH,ComponentDrill
T5C0.0394
; #@! TA.AperFunction,Plated,PTH,ComponentDrill
T6C0.0500
; #@! TA.AperFunction,NonPlated,NPTH,ComponentDrill
T7C0.0256
; #@! TA.AperFunction,NonPlated,NPTH,ComponentDrill
T8C0.0390
; #@! TA.AperFunction,NonPlated,NPTH,ComponentDrill
T9C0.0670
; #@! TA.AperFunction,NonPlated,NPTH,ComponentDrill
T10C0.1350
%
G90
G05
T1
X2.538Y-4.058
X3.2415Y-3.9252
X4.4Y-4.0298
X4.4182Y-3.865
X4.42Y-3.8984
X4.42Y-3.93
X4.42Y-4.265
X4.45Y-3.59
X4.4669Y-3.4958
X4.7Y-4.29
T2
X3.5378Y-4.0372
X3.625Y-4.335
X3.65Y-4.13
X3.65Y-4.245
X3.66Y-4.41
X3.705Y-4.19
X3.71Y-4.23
X3.7112Y-4.2988
X3.7461Y-1.1639
X3.75Y-4.34
X3.76Y-0.96
X3.8095Y-4.3305
X3.81Y-0.99
X3.83Y-4.19
X3.842Y-1.025
X3.852Y-1.171
X3.9Y-4.38
X3.9004Y-4.11
X3.94Y-1.165
X3.965Y-4.11
X3.995Y-3.975
X4.115Y-4.17
X4.12Y-4.11
X4.155Y-3.98
X4.215Y-4.11
X4.215Y-4.17
X4.22Y-4.06
X4.245Y-2.58
X4.2513Y-3.252
X4.27Y-1.91
X4.305Y-3.66
X4.305Y-4.17
X4.345Y-3.055
X4.345Y-3.38
X4.345Y-3.985
X4.36Y-3.675
X4.36Y-3.81
X4.43Y-4.32
X4.49Y-4.135
X4.51Y-4.19
X4.515Y-3.975
X4.535Y-4.15
X4.545Y-3.895
X4.56Y-3.975
X4.59Y-3.66
X4.635Y-4.22
X4.67Y-3.965
X4.67Y-4.035
X4.675Y-3.66
X4.72Y-3.655
X4.72Y-3.735
X4.725Y-4.22
X4.83Y-3.8655
T4
X3.985Y-4.37
X4.085Y-4.36
X4.185Y-4.37
X4.285Y-4.36
X4.385Y-4.37
X4.485Y-4.36
X4.585Y-4.37
T5
X2.0748Y-1.5827
X2.0748Y-2.248
X2.0748Y-2.9173
X2.0748Y-3.5866
X2.0748Y-4.2559
X2.5354Y-0.9488
X3.24Y-0.95
X4.55Y-0.95
X4.68Y-0.95
X5.38Y-0.95
X6.0827Y-0.9567
T6
X2.2323Y-2.7874
X2.2323Y-3.4567
X2.2323Y-4.126
X2.2327Y-1.4488
X2.2327Y-2.1181
X2.4291Y-2.8701
X2.4291Y-3.5394
X2.4291Y-4.2087
X2.4295Y-1.5315
X2.4295Y-2.2008
X2.626Y-2.7874
X2.626Y-3.4567
X2.626Y-4.126
X2.6264Y-1.4488
X2.6264Y-2.1181
X2.9409Y-1.4488
X2.9409Y-2.1181
X2.9409Y-2.7874
X2.9409Y-3.4567
X2.9409Y-4.126
X3.1378Y-1.5315
X3.1378Y-2.2008
X3.1378Y-2.8701
X3.1378Y-3.5394
X3.1378Y-4.2087
X3.3346Y-1.4488
X3.3346Y-2.1181
X3.3346Y-2.7874
X3.3346Y-3.4567
X3.3346Y-4.126
X3.8465Y-1.5315
X3.8465Y-1.8661
X3.8465Y-2.2008
X3.8465Y-2.5354
X3.8465Y-2.8701
X3.8465Y-3.2047
X3.8465Y-3.5394
X3.8465Y-3.874
X4.3583Y-1.4488
X4.3583Y-2.1181
X4.3583Y-2.7874
X4.3583Y-3.4567
X4.5551Y-1.5315
X4.5551Y-2.2008
X4.5551Y-2.8701
X4.5551Y-3.5394
X4.752Y-1.4488
X4.752Y-2.1181
X4.752Y-2.7874
X4.752Y-3.4567
X4.9562Y-4.1605
X5.0669Y-1.4488
X5.0669Y-2.1181
X5.0669Y-2.7874
X5.0669Y-3.4567
X5.1249Y-4.2913
X5.2638Y-1.5315
X5.2638Y-2.2008
X5.2638Y-2.8701
X5.2638Y-3.5394
X5.3365Y-4.2624
X5.4606Y-1.4488
X5.4606Y-2.1181
X5.4606Y-2.7874
X5.4606Y-3.4567
X5.6412Y-4.3455
X5.7756Y-1.4488
X5.7756Y-2.1181
X5.7756Y-2.7874
X5.7756Y-3.4567
X5.81Y-4.4763
X5.9724Y-1.5315
X5.9724Y-2.2008
X5.9724Y-2.8701
X5.9724Y-3.5394
X6.0215Y-4.4474
X6.1693Y-1.4488
X6.1693Y-2.1181
X6.1693Y-2.7874
X6.1693Y-3.4567
T7
X3.7287Y-1.0228
X3.9563Y-1.0228
T8
X2.2236Y-2.4724
X2.2236Y-3.1417
X2.2236Y-3.811
X2.224Y-1.1339
X2.224Y-1.8031
X2.6346Y-2.4724
X2.6346Y-3.1417
X2.6346Y-3.811
X2.635Y-1.1339
X2.635Y-1.8031
X2.9323Y-1.1339
X2.9323Y-1.8031
X2.9323Y-2.4724
X2.9323Y-3.1417
X2.9323Y-3.811
X3.3433Y-1.1339
X3.3433Y-1.8031
X3.3433Y-2.4724
X3.3433Y-3.1417
X3.3433Y-3.811
X3.6409Y-1.1339
X4.052Y-1.1339
X4.3496Y-1.1339
X4.3496Y-1.8031
X4.3496Y-2.4724
X4.3496Y-3.1417
X4.7606Y-1.1339
X4.7606Y-1.8031
X4.7606Y-2.4724
X4.7606Y-3.1417
X5.0293Y-3.854
X5.0583Y-1.1339
X5.0583Y-1.8031
X5.0583Y-2.4724
X5.0583Y-3.1417
X5.4263Y-3.9604
X5.4693Y-1.1339
X5.4693Y-1.8031
X5.4693Y-2.4724
X5.4693Y-3.1417
X5.7144Y-4.0391
X5.7669Y-1.1339
X5.7669Y-1.8031
X5.7669Y-2.4724
X5.7669Y-3.1417
X6.1114Y-4.1454
X6.178Y-1.1339
X6.178Y-1.8031
X6.178Y-2.4724
X6.178Y-3.1417
T9
X2.2126Y-2.6378
X2.2126Y-3.3071
X2.2126Y-3.9764
X2.213Y-1.2992
X2.213Y-1.9685
X2.6457Y-2.6378
X2.6457Y-3.3071
X2.6457Y-3.9764
X2.6461Y-1.2992
X2.6461Y-1.9685
X2.9213Y-1.2992
X2.9213Y-1.9685
X2.9213Y-2.6378
X2.9213Y-3.3071
X2.9213Y-3.9764
X3.3543Y-1.2992
X3.3543Y-1.9685
X3.3543Y-2.6378
X3.3543Y-3.3071
X3.3543Y-3.9764
X3.6299Y-1.2992
X3.6299Y-1.6339
X3.6299Y-1.9685
X3.6299Y-2.3031
X3.6299Y-2.6378
X3.6299Y-2.9724
X3.6299Y-3.3071
X3.6299Y-3.6417
X4.063Y-1.2992
X4.063Y-1.6339
X4.063Y-1.9685
X4.063Y-2.3031
X4.063Y-2.6378
X4.063Y-2.9724
X4.063Y-3.3071
X4.063Y-3.6417
X4.3386Y-1.2992
X4.3386Y-1.9685
X4.3386Y-2.6378
X4.3386Y-3.3071
X4.7717Y-1.2992
X4.7717Y-1.9685
X4.7717Y-2.6378
X4.7717Y-3.3071
X4.9759Y-4.0109
X5.0472Y-1.2992
X5.0472Y-1.9685
X5.0472Y-2.6378
X5.0472Y-3.3071
X5.3942Y-4.123
X5.4803Y-1.2992
X5.4803Y-1.9685
X5.4803Y-2.6378
X5.4803Y-3.3071
X5.6609Y-4.1959
X5.7559Y-1.2992
X5.7559Y-1.9685
X5.7559Y-2.6378
X5.7559Y-3.3071
X6.0792Y-4.308
X6.189Y-1.2992
X6.189Y-1.9685
X6.189Y-2.6378
X6.189Y-3.3071
T10
X2.4291Y-2.6378
X2.4291Y-3.3071
X2.4291Y-3.9764
X2.4295Y-1.2992
X2.4295Y-1.9685
X3.1378Y-1.2992
X3.1378Y-1.9685
X3.1378Y-2.6378
X3.1378Y-3.3071
X3.1378Y-3.9764
X3.8465Y-1.2992
X3.8465Y-1.6339
X3.8465Y-1.9685
X3.8465Y-2.3031
X3.8465Y-2.6378
X3.8465Y-2.9724
X3.8465Y-3.3071
X3.8465Y-3.6417
X4.5551Y-1.2992
X4.5551Y-1.9685
X4.5551Y-2.6378
X4.5551Y-3.3071
X5.185Y-4.0669
X5.2638Y-1.2992
X5.2638Y-1.9685
X5.2638Y-2.6378
X5.2638Y-3.3071
X5.8701Y-4.252
X5.9724Y-1.2992
X5.9724Y-1.9685
X5.9724Y-2.6378
X5.9724Y-3.3071
T3
G00X3.6724Y-0.8909
M15
G01X3.6724Y-0.8673
M16
G05
G00X3.6724Y-1.0654
M15
G01X3.6724Y-1.022
M16
G05
G00X4.0126Y-0.8909
M15
G01X4.0126Y-0.8673
M16
G05
G00X4.0126Y-1.0654
M15
G01X4.0126Y-1.022
M16
G05
T6
G00X3.6557Y-1.4358
M15
G01X3.6435Y-1.4618
M16
G05
G00X3.6557Y-1.7704
M15
G01X3.6435Y-1.7965
M16
G05
G00X3.6557Y-2.1051
M15
G01X3.6435Y-2.1311
M16
G05
G00X3.6557Y-2.4397
M15
G01X3.6435Y-2.4658
M16
G05
G00X3.6557Y-2.7744
M15
G01X3.6435Y-2.8004
M16
G05
G00X3.6557Y-3.109
M15
G01X3.6435Y-3.1351
M16
G05
G00X3.6557Y-3.4437
M15
G01X3.6435Y-3.4697
M16
G05
G00X3.6557Y-3.7783
M15
G01X3.6435Y-3.8044
M16
G05
G00X4.0372Y-1.4358
M15
G01X4.0494Y-1.4618
M16
G05
G00X4.0372Y-1.7704
M15
G01X4.0494Y-1.7965
M16
G05
G00X4.0372Y-2.1051
M15
G01X4.0494Y-2.1311
M16
G05
G00X4.0372Y-2.4397
M15
G01X4.0494Y-2.4658
M16
G05
G00X4.0372Y-2.7744
M15
G01X4.0494Y-2.8004
M16
G05
G00X4.0372Y-3.109
M15
G01X4.0494Y-3.1351
M16
G05
G00X4.0372Y-3.4437
M15
G01X4.0494Y-3.4697
M16
G05
G00X4.0372Y-3.7783
M15
G01X4.0494Y-3.8044
M16
G05
T0
M30
